<svg id="Capa_1" enable-background="new 0 0 512 512" height="512" viewBox="0 0 512 512" width="512" xmlns="http://www.w3.org/2000/svg"><g><g><path clip-rule="evenodd" d="m301.19 118.486c11.353-39.835 31.587-78.382 60.78-115.127 1.243-1.565-.252-3.819-2.175-3.274-25.726 7.3-49.388 19.05-70.963 35.253-11.541 8.669-22.494 18.627-32.832 29.874-15.259 16.518-29.199 35.848-41.851 57.961l-1.406 2.431c-6.619 11.744-12.886 24.28-18.773 37.576 5.301-.908 10.719-1.376 16.284-1.376h82.121c1.523-12.154 3.807-24.221 6.882-36.2.615-2.373 1.259-4.746 1.933-7.118z" fill="#ccf49f" fill-rule="evenodd"/></g><g><path clip-rule="evenodd" d="m339.409 166.401c4.35-36.475 19.347-71.648 45.142-104.661 1.235-1.58-.274-3.835-2.195-3.259-31.895 9.56-58.95 29.53-81.166 60.006-.674 2.372-1.318 4.745-1.933 7.117-3.075 11.979-5.36 24.045-6.882 36.2 16.986-.001 30.633-.646 47.034 4.597z" fill="#ccf49f" fill-rule="evenodd"/></g><g><path clip-rule="evenodd" d="m127.147 61.353c26.655 33.979 41.842 70.249 45.766 107.859 6.677-2.753 13.736-4.803 21.057-6.033 5.887-13.297 12.154-25.832 18.773-37.576-.205-.761-.381-1.523-.586-2.284-16.297-35.237-47.013-56.503-82.919-65.254-1.907-.465-3.291 1.758-2.091 3.288z" fill="#ccf49f" fill-rule="evenodd"/></g><g><path clip-rule="evenodd" d="m150.391 3.795c29.17 36.815 58.34 62.383 72.31 105.143 10.309-16.255 21.409-30.84 33.299-43.727-29.708-32.242-64.312-53.923-103.762-65.118-1.936-.549-3.435 1.724-2.175 3.293.109.137.218.273.328.409z" fill="#bee9ac" fill-rule="evenodd"/></g><g><path clip-rule="evenodd" d="m242.616 51.71c-9.958 11.129-19.329 23.46-28.174 36.99 3.134 6.355 5.916 13.062 8.259 20.238 10.309-16.255 21.409-30.84 33.299-43.727-4.364-4.744-8.816-9.225-13.384-13.501z" fill="#a4dcb1" fill-rule="evenodd"/></g><g><path clip-rule="evenodd" d="m135.777 73.002c24.63 11.305 45.014 29.903 57.256 56.379l.586 2.284c-6.472 11.481-12.564 23.664-18.363 36.61 6.004-2.284 12.242-4.012 18.714-5.096 5.887-13.297 12.154-25.832 18.773-37.576l-.586-2.284c-16.296-35.235-47.011-56.502-82.915-65.253-1.898-.463-3.302 1.75-2.097 3.287 3.018 3.852 5.885 7.728 8.632 11.649z" fill="#b3e59f" fill-rule="evenodd"/></g><g><path clip-rule="evenodd" d="m266.894 125.603c-3.046 11.832-5.33 23.782-6.824 35.819-.029.117-.029.264-.059.381h20.296 12.066c.002-.002.003-.003.005-.004 1.491-12.177 3.805-24.232 6.877-36.195.615-2.372 1.259-4.745 1.933-7.117 11.353-39.835 31.587-78.382 60.779-115.127 1.245-1.568-.256-3.821-2.183-3.276-13.777 3.902-26.958 9.093-39.56 15.573-24.335 33.212-43.05 70.056-53.33 109.946z" fill="#b3e59f" fill-rule="evenodd"/></g><g><path clip-rule="evenodd" d="m362.897 65.885c-23.898 30.489-38.571 62.822-44.135 96.328 0 .059 0 .088-.029.117 2.109.205 4.188.439 6.297.732 3.368.498 6.765 1.201 10.28 2.138h.059c.029.029.059.029.088.029h.029c1.084.293 2.138.615 3.222.937.234.088.469.146.703.234 4.35-36.473 19.345-71.645 45.138-104.657 1.235-1.581-.276-3.837-2.198-3.26-6.701 2.012-13.189 4.483-19.454 7.402z" fill="#b3e59f" fill-rule="evenodd"/></g><g><path clip-rule="evenodd" d="m404.045 277.93v96.358c0 21.566-5.022 42.015-13.971 60.243-2.325 4.733-4.908 9.331-7.75 13.743-10.819 16.864-25.203 31.238-42.077 42.036-5.373 3.451-11.005 6.531-16.864 9.207h-.01c-17.37 7.977-36.663 12.421-56.947 12.421h-20.853c-20.284 0-39.576-4.443-56.947-12.421-5.859-2.676-11.491-5.756-16.874-9.207-16.874-10.798-31.258-25.172-42.077-42.036-2.842-4.412-5.425-9.011-7.75-13.743-8.949-18.228-13.971-38.678-13.971-60.243v-96.358c0-14.239 2.191-27.982 6.241-40.92v-.01l.041-.114c1.901-6.035 4.206-11.894 6.892-17.536l.041-.114c9.414-19.819 23.446-37.076 40.672-50.354 4.113-3.183 8.422-6.138 12.896-8.835l.062-.041c12.152-7.337 25.513-12.855 39.69-16.161 5.136-1.199 10.375-2.108 15.696-2.707 5.053-.568 10.189-.858 15.386-.858h20.853c5.725 0 11.377.351 16.915 1.044 5.311.661 10.53 1.622 15.645 2.873 13.64 3.338 26.484 8.732 38.213 15.81 4.495 2.718 8.825 5.683 12.958 8.876 17.236 13.278 31.258 30.535 40.672 50.364 2.718 5.714 5.053 11.635 6.975 17.742-.01 0-.01 0 0 .01 4.052 12.938 6.243 26.692 6.243 40.931z" fill="#fde588" fill-rule="evenodd"/></g><g><path clip-rule="evenodd" d="m357.889 275.556v79.077 17.309c0 10.104-1.084 19.974-3.192 29.464-8.698 39.568-34.734 73.395-70.435 92.286-19.124 10.134-40.914 15.874-63.992 15.874 8.2 1.552 16.664 2.372 25.304 2.372 13.706 0 27.5.527 41.09-1.494 66.189-9.87 117.382-67.333 117.382-136.159v-51.957-20.618-23.782c0-50.229-27.237-94.395-67.712-118.44-6.092-3.632-12.506-6.795-19.154-9.46-8.23-3.28-16.869-5.799-25.773-7.468-8.112-1.494-16.459-2.284-24.982-2.284h-6.941-13.911c53.537 10.046 96.647 51.459 108.86 104.645 2.285 9.87 3.456 20.121 3.456 30.635z" fill="#fdd76f" fill-rule="evenodd"/></g><path d="m370.032 284.276c1.468-2.089 4.234-2.768 6.513-1.615 7.935 4.016 16.033 7.922 24.287 11.689 1.044.475 2.129.703 3.214.703v-16.275c-6.091-2.82-12.078-5.702-17.953-8.641-2.691-1.346-3.657-4.715-2.109-7.296 6.587-10.987 11.077-19.922 13.822-25.841 0-.003 0-.005 0-.007-1.922-6.108-4.258-12.03-6.976-17.745-1.819.806-3.338 2.315-4.102 4.319-.089.241-5.815 14.982-19.445 36.762-16.187-8.787-31.387-17.984-45.421-27.455-2.343-1.581-3.011-4.751-1.454-7.11 11.674-17.679 21.485-36.336 29.317-55.806.145-.372.3-.744.434-1.075-4.133-3.193-8.463-6.159-12.958-8.876-.196.3-.372.62-.527.961-.331.734-.734 1.715-1.333 3.214-5.213 12.959-13.91 31.376-27.504 51.988-1.658 2.514-5.114 3.087-7.508 1.259-10.666-8.143-20.445-16.424-29.24-24.761-2.013-1.909-2.149-5.071-.304-7.143 11.891-13.351 21.199-26.656 27.572-39.53.289-.589.496-1.188.63-1.798-5.115-1.25-10.333-2.211-15.645-2.873-5.53 10.606-13.177 21.442-22.697 32.322-2.071 2.367-5.782 2.356-7.838-.024-9.421-10.9-17.044-21.788-22.619-32.484-5.322.599-10.561 1.509-15.696 2.707.134.641.351 1.271.651 1.891 6.419 12.966 15.681 26.329 27.441 39.702 1.834 2.086 1.678 5.251-.351 7.148-9.082 8.498-19.226 16.958-30.322 25.29-2.39 1.794-5.81 1.217-7.459-1.275-13.758-20.787-22.541-39.372-27.79-52.421-.599-1.498-1.002-2.48-1.333-3.214-.155-.341-.331-.661-.527-.961l-.062.041-12.896 8.835c.134.331.289.703.434 1.075 7.869 19.564 17.74 38.306 29.488 56.061 1.568 2.369.888 5.558-1.477 7.132-12.818 8.534-26.606 16.866-41.229 24.897-2.425 1.332-5.468.491-6.903-1.875-1.532-2.528-2.952-4.947-4.256-7.237-8.752-15.376-12.555-25.172-12.627-25.368-.765-2.015-2.273-3.524-4.102-4.33l-.041.114-6.892 17.536-.043.114v.01c2.751 5.924 7.249 14.867 13.844 25.865 1.543 2.573.578 5.932-2.108 7.27-5.883 2.931-11.877 5.81-17.977 8.632v16.275c1.085 0 2.17-.227 3.214-.703 8.251-3.767 16.347-7.663 24.281-11.662 2.292-1.156 5.073-.47 6.549 1.63 7.241 10.301 15.913 21.525 26.199 33.21 2.039 2.316 4.109 4.608 6.207 6.877 2.357 2.549 1.574 6.654-1.557 8.155-13.995 6.712-29.093 12.862-45.368 18.275-2.177.724-4.564-.105-5.859-1.999-4.566-6.678-13.666-18.185-13.666-18.185v25.72c.08.119.171.251.253.371-.085.024-.168.049-.253.073v15.789c.672 0 1.364-.083 2.046-.279 2.663-.73 5.304-1.487 7.933-2.259 8.012 10.243 19.115 22.89 33.886 36.535 2.615 2.416 5.396 4.903 8.34 7.444 2.995 2.586 2.129 7.449-1.596 8.785-11.175 4.008-22.857 7.728-35.088 11.082-.548.155-1.064.351-1.55.62 2.325 4.733 4.908 9.331 7.75 13.743 16.776-4.676 33.074-10.137 48.847-16.356 1.649-.65 3.502-.412 4.932.634 12.777 9.341 27.573 18.932 44.518 28.199 3.84 2.1 3.499 7.734-.575 9.334-15.651 6.149-32.625 11.816-51.006 16.731-2.025.537-3.648 1.829-4.64 3.493 5.384 3.451 11.015 6.531 16.874 9.207 24.104-6.877 45.804-15.003 65.273-23.78 1.341-.605 2.859-.605 4.201 0 19.469 8.777 41.169 16.903 65.273 23.78h.01c5.859-2.676 11.491-5.756 16.864-9.207-.992-1.664-2.614-2.955-4.64-3.493-18.383-4.916-35.358-10.584-51.011-16.734-4.072-1.6-4.413-7.23-.575-9.329 16.949-9.269 31.749-18.862 44.528-28.205 1.428-1.044 3.277-1.282 4.923-.633 15.775 6.22 32.075 11.682 48.852 16.358 2.842-4.412 5.425-9.011 7.75-13.743-.486-.269-1.002-.465-1.55-.62-12.23-3.353-23.912-7.073-35.087-11.081-3.725-1.336-4.592-6.199-1.596-8.786 2.943-2.541 5.724-5.028 8.339-7.444 13.505-12.475 23.943-24.115 31.756-33.847 1.306-1.627 3.451-2.296 5.456-1.721 1.529.439 3.064.87 4.606 1.293.682.196 1.374.279 2.046.279v-15.789c-.085-.024-.168-.049-.253-.073.081-.121.173-.252.253-.371l.001-25.375s-9.074 11.127-13.66 17.837c-1.297 1.898-3.689 2.726-5.87 2.001-16.273-5.412-31.37-11.562-45.363-18.273-3.131-1.501-3.914-5.607-1.557-8.157 2.097-2.269 4.167-4.56 6.206-6.876 10.302-11.701 18.984-22.939 26.231-33.251zm-140.186-60.637c8.347-6.608 16.112-13.298 23.261-20.022 1.977-1.859 5.065-1.848 7.03.024 6.998 6.669 14.583 13.296 22.719 19.832 2.813 2.26 5.695 4.51 8.641 6.749 2.304 1.751 2.727 5.049.94 7.325-9.283 11.826-20.169 23.977-32.875 35.931-2.006 1.887-5.129 1.878-7.134-.009-12.566-11.824-23.349-23.84-32.564-35.543-1.801-2.287-1.364-5.61.967-7.354 3.076-2.3 6.084-4.611 9.015-6.933zm-49.538 84.196c-9.16-10.367-16.999-20.392-23.654-29.7-1.803-2.522-1.003-6.037 1.71-7.539 14.572-8.065 28.418-16.468 41.345-25.1 2.244-1.498 5.253-.972 6.911 1.156 3.965 5.087 8.089 10.082 12.386 14.972 6.606 7.516 13.524 14.708 20.735 21.587 2.258 2.154 2.085 5.811-.353 7.758-12.653 10.104-26.77 19.86-42.503 28.927-2.057 1.186-4.667.788-6.311-.925-3.646-3.8-7.074-7.524-10.266-11.136zm78.978-7.339c13.07 10.692 26.985 20.463 41.719 29.301 2.957 1.774 3.376 5.906.82 8.221-12.363 11.196-26.617 22.673-42.904 33.844-1.756 1.204-4.088 1.204-5.844 0-16.285-11.17-30.538-22.645-42.9-33.84-2.558-2.317-2.139-6.452.821-8.227 14.732-8.837 28.645-18.607 41.714-29.298 1.919-1.57 4.657-1.57 6.574-.001zm-96.348 95.265c-9.648-8.873-17.673-17.331-24.232-24.91-2.375-2.744-1.245-7.009 2.175-8.222 16.245-5.764 31.782-12.391 46.589-19.87 1.955-.988 4.305-.643 5.894.864 13.138 12.463 27.173 24.115 42.017 34.876 3.003 2.177 2.809 6.724-.385 8.611-14.819 8.754-31.04 17.118-48.735 24.78-1.742.754-3.773.49-5.259-.692-6.73-5.357-12.744-10.546-18.064-15.437zm90.794 60.83c-18.325-8.875-34.387-18.278-48.333-27.606-3.342-2.235-2.948-7.249.69-8.961 16.4-7.717 32.137-16.319 47.163-25.76 1.684-1.058 3.812-1.058 5.496 0 15.026 9.441 30.764 18.043 47.163 25.76 3.638 1.712 4.032 6.726.69 8.961-13.946 9.327-30.009 18.73-48.333 27.606-1.427.691-3.11.691-4.536 0zm95.329-60.83c-5.32 4.891-11.333 10.08-18.064 15.436-1.486 1.183-3.518 1.447-5.261.692-17.696-7.663-33.917-16.026-48.737-24.781-3.192-1.886-3.386-6.431-.385-8.607 14.845-10.762 28.882-22.415 42.022-34.879 1.589-1.507 3.937-1.851 5.892-.864 14.807 7.479 30.343 14.107 46.589 19.87 3.423 1.214 4.554 5.483 2.177 8.229-6.559 7.578-14.584 16.035-24.233 24.904zm-76.45-104.792c-2.439-1.947-2.612-5.604-.353-7.758 7.212-6.879 14.13-14.071 20.735-21.587 4.358-4.958 8.538-10.025 12.554-15.186 1.673-2.151 4.717-2.676 6.974-1.149 12.872 8.704 26.663 17.155 41.174 25.245 2.704 1.507 3.498 5.015 1.698 7.534-6.666 9.326-14.52 19.376-23.702 29.767-3.189 3.609-6.613 7.329-10.256 11.126-1.65 1.719-4.268 2.118-6.333.928-15.729-9.065-29.842-18.819-42.491-28.92z" fill="#ffbc85"/><g><path d="m256.117 245.789h-.117c-4.281 0-7.75-3.47-7.75-7.75s3.469-7.75 7.75-7.75h.117c4.281 0 7.75 3.47 7.75 7.75s-3.47 7.75-7.75 7.75z" fill="#ce9875"/></g><g><path d="m194.233 289.398h-.146c-4.281 0-7.75-3.47-7.75-7.75s3.469-7.75 7.75-7.75h.146c4.281 0 7.75 3.47 7.75 7.75s-3.469 7.75-7.75 7.75z" fill="#ce9875"/></g><g><path d="m134.078 321.381h-.146c-4.281 0-7.75-3.47-7.75-7.75s3.469-7.75 7.75-7.75h.146c4.281 0 7.75 3.47 7.75 7.75s-3.469 7.75-7.75 7.75z" fill="#ce9875"/></g><g><path d="m152.733 227.279h-.117c-4.281 0-7.75-3.47-7.75-7.75s3.469-7.75 7.75-7.75h.117c4.281 0 7.75 3.47 7.75 7.75s-3.469 7.75-7.75 7.75z" fill="#ce9875"/></g><g><path d="m255.062 344.401h-.117c-4.281 0-7.75-3.47-7.75-7.75s3.469-7.75 7.75-7.75h.117c4.281 0 7.75 3.47 7.75 7.75s-3.469 7.75-7.75 7.75z" fill="#ce9875"/></g><g><path d="m184.422 383.148h-.117c-4.281 0-7.75-3.47-7.75-7.75s3.469-7.75 7.75-7.75h.117c4.281 0 7.75 3.47 7.75 7.75s-3.469 7.75-7.75 7.75z" fill="#ce9875"/></g><g><path d="m178.506 460.351h-.117c-4.281 0-7.75-3.47-7.75-7.75s3.469-7.75 7.75-7.75h.117c4.281 0 7.75 3.47 7.75 7.75s-3.469 7.75-7.75 7.75z" fill="#ce9875"/></g><g><path d="m255.473 431.795h-.147c-4.281 0-7.75-3.47-7.75-7.75s3.469-7.75 7.75-7.75h.147c4.281 0 7.75 3.47 7.75 7.75 0 4.281-3.469 7.75-7.75 7.75z" fill="#ce9875"/></g><g><path d="m314.72 289.398h-.117c-4.281 0-7.75-3.47-7.75-7.75s3.469-7.75 7.75-7.75h.117c4.281 0 7.75 3.47 7.75 7.75s-3.47 7.75-7.75 7.75z" fill="#ce9875"/></g><g><path d="m374.876 321.381h-.117c-4.281 0-7.75-3.47-7.75-7.75s3.469-7.75 7.75-7.75h.117c4.281 0 7.75 3.47 7.75 7.75s-3.469 7.75-7.75 7.75z" fill="#ce9875"/></g><g><path d="m356.22 227.279h-.117c-4.281 0-7.75-3.47-7.75-7.75s3.469-7.75 7.75-7.75h.117c4.281 0 7.75 3.47 7.75 7.75s-3.47 7.75-7.75 7.75z" fill="#ce9875"/></g><g><path d="m324.531 383.148h-.117c-4.281 0-7.75-3.47-7.75-7.75s3.469-7.75 7.75-7.75h.117c4.281 0 7.75 3.47 7.75 7.75s-3.469 7.75-7.75 7.75z" fill="#ce9875"/></g><g><path d="m330.447 460.351h-.117c-4.281 0-7.75-3.47-7.75-7.75s3.469-7.75 7.75-7.75h.117c4.281 0 7.75 3.47 7.75 7.75s-3.47 7.75-7.75 7.75z" fill="#ce9875"/></g><g><path d="m211.337 190.904h-.118c-4.281 0-7.75-3.47-7.75-7.75s3.469-7.75 7.75-7.75h.118c4.281 0 7.75 3.47 7.75 7.75s-3.469 7.75-7.75 7.75z" fill="#ce9875"/></g><g><path d="m300.897 190.904h-.117c-4.281 0-7.75-3.47-7.75-7.75s3.469-7.75 7.75-7.75h.117c4.281 0 7.75 3.47 7.75 7.75s-3.469 7.75-7.75 7.75z" fill="#ce9875"/></g></g></svg>